# File created by Blade
# Date/Time:  Fri Jan 16 15:45:56 2015
#---------------------------------------------------------
:version 1.10
:name HOM
:units
  mass 1.0
  length 1.000000
  angle deg
:documentation
     Acclaim Skeleton File
:root
   axis xyz
   order TX TY TZ RX RY RZ
   position 0.000000 0.000000 0.000000
   orientation 0 0 0
:bonedata
   begin
      id 1
      name Spine_dum
      direction 0.000000 1.000000 0.000000
      length 7.170412
      axis 0.0 0.0 0.0 xyz
   end
   begin
      id 2
      name LeftUpLeg_dum
      direction 1.000000 0.000000 0.000000
      length 4.318350
      axis 0.0 0.0 0.0 xyz
   end
   begin
      id 3
      name RightUpLeg_dum
      direction -1.000000 0.000000 0.000000
      length 4.318350
      axis 0.0 0.0 0.0 xyz
   end
   begin
      id 4
      name Spine
      direction 0.000000 1.000000 0.000000
      length 0.000000
      axis 0.0 0.0 0.0 xyz
      dof rx ry rz
   end
   begin
      id 5
      name Spine_dum1
      direction 0.000000 1.000000 0.000000
      length 14.276153
      axis 0.0 0.0 0.0 xyz
   end
   begin
      id 6
      name Spine_dum2
      direction 0.000000 1.000000 0.000000
      length 10.718243
      axis 0.0 0.0 0.0 xyz
   end
   begin
      id 7
      name Spine_dum3
      direction 0.000000 1.000000 0.000000
      length 10.718243
      axis 0.0 0.0 0.0 xyz
   end
   begin
      id 8
      name Head
      direction 0.000000 1.000000 0.000000
      length 4.527550
      axis 0.0 0.0 0.0 xyz
      dof rx ry rz
   end
   begin
      id 9
      name LeftShoulder
      direction 1.000000 0.000000 0.000000
      length 7.058872
      axis 0.0 0.0 -90.0 xyz
      dof rx ry rz
   end
   begin
      id 10
      name LeftArm
      direction 1.000000 0.000000 0.000000
      length 10.955525
      axis 0.0 0.0 -90.0 xyz
      dof rx ry rz
   end
   begin
      id 11
      name LeftForeArm
      direction 1.000000 0.000000 0.000000
      length 8.193716
      axis 0.0 0.0 -90.0 xyz
      dof ry rz rx
   end
   begin
      id 12
      name LeftHand
      direction 0.000000 0.000000 0.000000
      length 0.000000
      axis 0.0 0.0 -90.0 xyz
      dof rx ry rz
   end
   begin
      id 13
      name LeftHand_dum1
      direction 0.000000 0.000000 0.000000
      length 0.000000
      axis 0.0 0.0 -90.0 xyz
   end
   begin
      id 14
      name LeftHand_dum2
      direction 1.000000 0.000000 0.000000
      length 3.937000
      axis 0.0 0.0 -90.0 xyz
   end
   begin
      id 15
      name LeftHandThumb1
      direction 0.000000 0.000000 1.000000
      length 3.937000
      axis 0.0 0.0 -90.0 xyz
      dof rx rz ry
   end
   begin
      id 16
      name RightShoulder
      direction -1.000000 0.000000 0.000000
      length 7.058872
      axis 0.0 0.0 90.0 xyz
      dof rx ry rz
   end
   begin
      id 17
      name RightArm
      direction -1.000000 0.000000 0.000000
      length 10.955525
      axis 0.0 0.0 90.0 xyz
      dof rx ry rz
   end
   begin
      id 18
      name RightForeArm
      direction -1.000000 0.000000 0.000000
      length 8.193716
      axis 0.0 0.0 90.0 xyz
      dof ry rz rx
   end
   begin
      id 19
      name RightHand
      direction 0.000000 0.000000 0.000000
      length 0.000000
      axis 0.0 0.0 90.0 xyz
      dof rx ry rz
   end
   begin
      id 20
      name RightHand_dum1
      direction 0.000000 0.000000 0.000000
      length 0.000000
      axis 0.0 0.0 90.0 xyz
   end
   begin
      id 21
      name RightHand_dum2
      direction -1.000000 0.000000 0.000000
      length 3.937000
      axis 0.0 0.0 90.0 xyz
   end
   begin
      id 22
      name RightHandThumb1
      direction 0.000000 0.000000 1.000000
      length 3.937000
      axis 0.0 0.0 90.0 xyz
      dof rx rz ry
   end
   begin
      id 23
      name LeftUpLeg
      direction 0.000000 -1.000000 0.000000
      length 17.323638
      axis 0.0 0.0 0.0 xyz
      dof rx ry rz
   end
   begin
      id 24
      name LeftLeg
      direction 0.000000 -1.000000 0.000000
      length 16.270368
      axis 0.0 0.0 0.0 xyz
      dof rx ry rz
   end
   begin
      id 25
      name LeftFoot
      direction 0.000000 -0.258819 0.965926
      length 4.922846
      axis 15.0 0.0 0.0 xyz
      dof rx ry rz
   end
   begin
      id 26
      name LeftToeBase
      direction 0.000000 0.000000 1.000000
      length 2.952750
      axis 0.0 0.0 0.0 xyz
      dof rx ry rz
   end
   begin
      id 27
      name RightUpLeg
      direction 0.000000 -1.000000 0.000000
      length 17.323638
      axis 0.0 0.0 0.0 xyz
      dof rx ry rz
   end
   begin
      id 28
      name RightLeg
      direction 0.000000 -1.000000 0.000000
      length 16.270368
      axis 0.0 0.0 0.0 xyz
      dof rx ry rz
   end
   begin
      id 29
      name RightFoot
      direction 0.000000 -0.258819 0.965926
      length 4.922846
      axis 15.0 0.0 0.0 xyz
      dof rx ry rz
   end
   begin
      id 30
      name RightToeBase
      direction 0.000000 0.000000 1.000000
      length 2.952750
      axis 0.0 0.0 0.0 xyz
      dof rx ry rz
   end
:hierarchy
   begin
      root Spine_dum LeftUpLeg_dum RightUpLeg_dum
      Spine_dum Spine
      LeftUpLeg_dum LeftUpLeg
      RightUpLeg_dum RightUpLeg
      Spine Spine_dum1 Spine_dum2 Spine_dum3
      Spine_dum1 Head
      Spine_dum2 LeftShoulder
      Spine_dum3 RightShoulder
      LeftShoulder LeftArm
      LeftArm LeftForeArm
      LeftForeArm LeftHand
      LeftHand LeftHand_dum1 LeftHand_dum2
      LeftHand_dum1 LeftHandThumb1
      RightShoulder RightArm
      RightArm RightForeArm
      RightForeArm RightHand
      RightHand RightHand_dum1 RightHand_dum2
      RightHand_dum1 RightHandThumb1
      LeftUpLeg LeftLeg
      LeftLeg LeftFoot
      LeftFoot LeftToeBase
      RightUpLeg RightLeg
      RightLeg RightFoot
      RightFoot RightToeBase
   end

# File created by Blade
# Date/Time:  Fri Jan 16 15:45:48 2015
# Frame Rate: 120.000 fps
#------------------------------------------------------
:FULLY-SPECIFIED
:DEGREES
2479
root -5.877720 35.298498 -10.049986 -3.200590 6.446247 -3.827194
Spine 2.998181 -5.235331 -5.875763
Head -10.606226 -11.430663 13.072853
LeftShoulder -22.661936 14.193363 -16.481850
LeftArm 21.755529 1.986583 -68.598807
LeftForeArm 4.470603 0.000000 18.175600
LeftHand 2.909269 -0.000000 -6.690430
LeftHandThumb1 -26.253704 0.000000 33.147579
RightShoulder -7.763184 19.966383 -46.100923
RightArm 18.391582 4.938046 -18.488562
RightForeArm -51.735708 -0.000000 16.633063
RightHand -4.004131 0.000000 21.842878
RightHandThumb1 -24.326973 -0.000000 -32.862282
LeftUpLeg 9.906021 6.307841 5.974501
LeftLeg -8.346298 -0.000000 0.000000
LeftFoot -12.817252 22.783763 -10.633697
LeftToeBase 21.629587 -0.000000 -0.000000
RightUpLeg 10.336079 -10.859282 0.926398
RightLeg -2.696389 -0.000000 0.000000
RightFoot -7.756655 -30.621610 6.591382
RightToeBase 12.979115 -0.000000 -0.000000
2480
root -5.884211 35.295629 -10.035764 -3.170997 6.351266 -3.854497
Spine 2.813015 -5.202113 -5.883956
Head -10.124001 -11.325086 13.063782
LeftShoulder -22.597925 14.203151 -16.466661
LeftArm 21.612903 2.010557 -68.536880
LeftForeArm 4.420086 -0.000000 18.190303
LeftHand 2.933981 0.000000 -6.542031
LeftHandThumb1 -26.253704 0.000000 33.147579
RightShoulder -7.785090 19.779285 -46.048311
RightArm 18.496983 5.332168 -18.521211
RightForeArm -51.353246 -0.000000 16.690803
RightHand -4.098566 -0.000000 21.733599
RightHandThumb1 -24.326973 -0.000000 -32.862282
LeftUpLeg 9.938597 6.386835 6.019199
LeftLeg -8.388621 -0.000000 0.000000
LeftFoot -12.847845 22.807351 -10.596343
LeftToeBase 21.663011 -0.000000 -0.000000
RightUpLeg 10.325531 -10.822564 0.963151
RightLeg -2.710670 -0.000000 0.000000
RightFoot -7.763780 -30.554177 6.585652
RightToeBase 12.974944 -0.000000 -0.000000
2481
root -5.890354 35.292480 -10.021049 -3.139017 6.252683 -3.887342
Spine 2.629695 -5.207622 -5.863952
Head -9.699459 -11.230739 13.002311
LeftShoulder -22.558067 14.230493 -16.528374
LeftArm 21.515095 2.032912 -68.411198
LeftForeArm 4.400801 -0.000000 18.195687
LeftHand 2.879710 -0.000000 -6.633381
LeftHandThumb1 -26.253704 0.000000 33.147579
RightShoulder -7.850297 19.742442 -46.094493
RightArm 18.677129 5.786888 -18.345889
RightForeArm -51.323000 0.000000 16.818459
RightHand -4.116563 -0.000000 21.768344
RightHandThumb1 -24.326973 -0.000000 -32.862282
LeftUpLeg 9.977162 6.387137 6.061404
LeftLeg -8.443492 -0.000000 0.000000
LeftFoot -12.894369 22.890975 -10.619134
LeftToeBase 21.663241 -0.000000 -0.000000
RightUpLeg 10.317874 -10.768733 1.008285
RightLeg -2.740046 -0.000000 0.000000
RightFoot -7.734645 -30.515166 6.544877
RightToeBase 12.975222 -0.000000 -0.000000
2482
root -5.893938 35.288795 -10.005621 -3.108534 6.145431 -3.911645
Spine 2.443500 -5.220651 -5.839252
Head -9.295499 -11.163833 12.894481
LeftShoulder -22.500091 14.323812 -16.634966
LeftArm 21.459370 2.009386 -68.276585
LeftForeArm 4.365826 -0.000000 18.196240
LeftHand 2.905022 -0.000000 -6.508136
LeftHandThumb1 -26.253704 0.000000 33.147579
RightShoulder -7.840649 19.642977 -46.074139
RightArm 18.821870 6.135298 -18.305397
RightForeArm -51.228087 -0.000000 16.878969
RightHand -4.242267 -0.000000 21.775582
RightHandThumb1 -24.326973 -0.000000 -32.862282
LeftUpLeg 10.026564 6.457978 6.097988
LeftLeg -8.506968 -0.000000 0.000000
LeftFoot -12.905731 22.941061 -10.573997
LeftToeBase 21.660760 -0.000000 -0.000000
RightUpLeg 10.314113 -10.697199 1.043003
RightLeg -2.771315 -0.000000 0.000000
RightFoot -7.740324 -30.479545 6.536894
RightToeBase 12.970659 -0.000000 -0.000000
2483
root -5.897913 35.285556 -9.989722 -3.102482 6.040785 -3.933968
Spine 2.311382 -5.273870 -5.820785
Head -8.980158 -11.099577 12.786176
LeftShoulder -22.464321 14.343332 -16.747195
LeftArm 21.383514 1.999783 -68.126733
LeftForeArm 4.545093 -0.000000 18.173868
LeftHand 2.845761 -0.000000 -6.648109
LeftHandThumb1 -26.253704 0.000000 33.147579
RightShoulder -7.875579 19.494922 -46.010144
RightArm 19.066858 6.505746 -18.371826
RightForeArm -50.702483 -0.000000 16.837102
RightHand -4.235673 -0.000000 22.072053
RightHandThumb1 -24.326973 -0.000000 -32.862282
LeftUpLeg 10.101873 6.538425 6.135732
LeftLeg -8.573102 -0.000000 0.000000
LeftFoot -12.929341 22.972022 -10.560267
LeftToeBase 21.693855 -0.000000 -0.000000
RightUpLeg 10.335342 -10.586652 1.078576
RightLeg -2.799447 -0.000000 0.000000
RightFoot -7.742040 -30.485245 6.529453
RightToeBase 12.989296 -0.000000 -0.000000
2484
root -5.902558 35.281931 -9.973114 -3.112882 5.985248 -3.949642
Spine 2.228849 -5.403848 -5.836273
Head -8.738176 -10.998065 12.728449
LeftShoulder -22.496882 14.315463 -16.841200
LeftArm 21.334056 2.025166 -67.989293
LeftForeArm 4.712687 0.000000 18.109410
LeftHand 2.929450 0.000000 -6.567477
LeftHandThumb1 -26.253704 0.000000 33.147579
RightShoulder -7.910795 19.478918 -45.981650
RightArm 19.291044 6.775598 -18.341757
RightForeArm -50.376957 -0.000000 16.838905
RightHand -4.306447 -0.000000 22.181250
RightHandThumb1 -24.326973 -0.000000 -32.862282
LeftUpLeg 10.177338 6.491584 6.161785
LeftLeg -8.619939 -0.000000 0.000000
LeftFoot -12.956716 23.044877 -10.559584
LeftToeBase 21.702809 -0.000000 -0.000000
RightUpLeg 10.387313 -10.534692 1.099630
RightLeg -2.837402 -0.000000 0.000000
RightFoot -7.761059 -30.482102 6.535113
RightToeBase 12.980285 -0.000000 -0.000000
2485
root -5.909672 35.279461 -9.951462 -3.200630 5.933037 -3.956527
Spine 2.253397 -5.527591 -5.896644
Head -8.574081 -10.874152 12.732469
LeftShoulder -22.549530 14.330010 -16.923744
LeftArm 21.378187 2.020338 -67.869612
LeftForeArm 4.666069 -0.000000 18.019781
LeftHand 2.926060 -0.000000 -6.434358
LeftHandThumb1 -26.253704 0.000000 33.147579
RightShoulder -7.889135 19.618613 -45.935891
RightArm 19.412928 6.978238 -18.238299
RightForeArm -50.280943 -0.000000 16.957388
RightHand -4.401186 -0.000000 22.222295
RightHandThumb1 -24.326973 -0.000000 -32.862282
LeftUpLeg 10.337269 6.487204 6.198825
LeftLeg -8.670492 -0.000000 0.000000
LeftFoot -12.982860 23.083965 -10.592061
LeftToeBase 21.672499 -0.000000 -0.000000
RightUpLeg 10.538534 -10.499149 1.104240
RightLeg -2.908144 -0.000000 0.000000
RightFoot -7.751467 -30.511962 6.508105
RightToeBase 13.010987 -0.000000 -0.000000
2486
root -5.915005 35.274862 -9.939283 -3.202481 5.867804 -3.951033
Spine 2.200576 -5.618456 -5.944444
Head -8.484162 -10.785649 12.725590
LeftShoulder -22.632755 14.336646 -16.993488
LeftArm 21.469542 2.070621 -67.773916
LeftForeArm 4.702243 -0.000000 17.886845
LeftHand 2.894607 -0.000000 -6.369739
LeftHandThumb1 -26.253704 0.000000 33.147579
RightShoulder -7.885988 19.701942 -45.915570
RightArm 19.489436 7.241476 -18.109192
RightForeArm -50.290201 -0.000000 17.089931
RightHand -4.567704 -0.000000 22.194542
RightHandThumb1 -24.326973 -0.000000 -32.862282
LeftUpLeg 10.383836 6.480172 6.208490
LeftLeg -8.686123 -0.000000 0.000000
LeftFoot -13.026178 23.130541 -10.600901
LeftToeBase 21.685681 -0.000000 -0.000000
RightUpLeg 10.563808 -10.425524 1.112942
RightLeg -2.926222 -0.000000 0.000000
RightFoot -7.775296 -30.528927 6.475069
RightToeBase 13.021251 -0.000000 -0.000000
2487
root -5.919900 35.271956 -9.925002 -3.247170 5.783061 -3.952192
Spine 2.196904 -5.700199 -5.998883
Head -8.404310 -10.714393 12.737841
LeftShoulder -22.700262 14.337819 -17.027413
LeftArm 21.541742 1.960699 -67.797302
LeftForeArm 4.988817 -0.000000 17.748033
LeftHand 2.871832 -0.000000 -6.364667
LeftHandThumb1 -26.253704 0.000000 33.147579
RightShoulder -7.806518 19.838796 -45.827780
RightArm 19.461394 7.667032 -17.914274
RightForeArm -50.735278 -0.000000 17.340621
RightHand -4.729901 -0.000000 22.038487
RightHandThumb1 -24.326973 -0.000000 -32.862282
LeftUpLeg 10.481020 6.445083 6.227029
LeftLeg -8.695949 -0.000000 0.000000
LeftFoot -13.078247 23.207216 -10.626596
LeftToeBase 21.661056 -0.000000 -0.000000
RightUpLeg 10.632658 -10.332318 1.123233
RightLeg -2.943547 -0.000000 0.000000
RightFoot -7.787603 -30.557531 6.439846
RightToeBase 13.033972 -0.000000 -0.000000
2488
root -5.925968 35.269673 -9.907077 -3.316600 5.688681 -3.947151
Spine 2.246615 -5.761808 -6.057422
Head -8.429992 -10.643134 12.742069
LeftShoulder -22.813578 14.314619 -17.048120
LeftArm 21.634044 1.943564 -67.802428
LeftForeArm 5.201232 0.000000 17.608085
LeftHand 2.831721 -0.000000 -6.306202
LeftHandThumb1 -26.253704 0.000000 33.147579
RightShoulder -7.777344 19.882135 -45.752174
RightArm 19.460202 8.018273 -17.821383
RightForeArm -50.762439 -0.000000 17.467169
RightHand -4.768228 -0.000000 21.952283
RightHandThumb1 -24.326973 -0.000000 -32.862282
LeftUpLeg 10.617278 6.403234 6.241017
LeftLeg -8.714293 -0.000000 0.000000
LeftFoot -13.112992 23.271581 -10.773163
LeftToeBase 21.455237 -0.000000 -0.000000
RightUpLeg 10.733357 -10.236996 1.124867
RightLeg -2.965441 -0.000000 0.000000
RightFoot -7.810431 -30.571544 6.431667
RightToeBase 13.023410 -0.000000 -0.000000
2489
root -5.930181 35.266696 -9.891620 -3.411618 5.584597 -3.968178
Spine 2.328959 -5.811545 -6.075527
Head -8.453150 -10.580686 12.736340
LeftShoulder -22.903615 14.299393 -17.047837
LeftArm 21.721117 1.884275 -67.885853
LeftForeArm 5.339734 0.000000 17.478778
LeftHand 2.800780 -0.000000 -6.123741
LeftHandThumb1 -26.253704 0.000000 33.147579
RightShoulder -7.733710 19.938067 -45.641821
RightArm 19.525446 8.267083 -17.872477
RightForeArm -50.253208 0.000000 17.401920
RightHand -4.836211 -0.000000 21.942538
RightHandThumb1 -24.326973 -0.000000 -32.862282
LeftUpLeg 10.772688 6.446557 6.293076
LeftLeg -8.744755 -0.000000 0.000000
LeftFoot -13.169263 23.313762 -10.692864
LeftToeBase 21.671833 -0.000000 -0.000000
RightUpLeg 10.844509 -10.144488 1.143285
RightLeg -2.970824 -0.000000 0.000000
RightFoot -7.826335 -30.575191 6.406498
RightToeBase 13.052692 -0.000000 -0.000000
2490
root -5.935550 35.265643 -9.878461 -3.490257 5.495933 -3.964370
Spine 2.399035 -5.816319 -6.142992
Head -8.493058 -10.583286 12.767485
LeftShoulder -22.918853 14.297252 -16.984180
LeftArm 21.772558 1.914394 -67.941897
LeftForeArm 5.279057 -0.000000 17.379498
LeftHand 2.835103 -0.000000 -6.151920
LeftHandThumb1 -26.253704 0.000000 33.147579
RightShoulder -7.688560 19.979690 -45.495729
RightArm 19.523162 8.632082 -17.855412
RightForeArm -50.074162 -0.000000 17.401001
RightHand -4.908146 0.000000 21.849458
RightHandThumb1 -24.326973 -0.000000 -32.862282
LeftUpLeg 10.884235 6.515257 6.317257
LeftLeg -8.723457 -0.000000 0.000000
LeftFoot -13.202465 23.312143 -10.705597
LeftToeBase 21.636041 -0.000000 -0.000000
RightUpLeg 10.934073 -10.063350 1.140114
RightLeg -2.966494 -0.000000 0.000000
RightFoot -7.865099 -30.588982 6.424842
RightToeBase 13.082196 -0.000000 -0.000000
